<?xml version="1.0" encoding="utf-8"?>
<!DOCTYPE svg PUBLIC "-//W3C//DTD SVG 1.0//EN" "http://www.w3.org/TR/2001/REC-SVG-20010904/DTD/svg10.dtd">
<svg version="1.0" xmlns="http://www.w3.org/2000/svg" width="500px" height="500px" viewBox="0 0 300 300" preserveAspectRatio="xMidYMid">
 <g fill="#feffff">
  <path d="M0 172 l0 -172 363 0 363 0 0 172 0 172 -363 0 -363 0 0 -172z m182.4 124 c1.7 -0.6 5.7 -1.7 8.9 -2.6 3.1 -0.8 5.5 -2 5.2 -2.5 -1.5 -2.3 -20.5 -18.2 -27.7 -23.1 l-4 -2.8 -3.2 2.2 c-8.6 6.1 -24.4 18.7 -26.9 21.6 -2.2 2.4 -2.1 2.5 8.4 5.6 7.1 2.1 10.5 2.5 22.3 2.5 7.7 0.1 15.3 -0.4 17 -0.9z m41.3 -22.9 c15.2 -15.1 22.8 -29.7 26.4 -50.7 0.6 -3.9 0.9 -8.6 0.5 -10.5 -0.4 -1.9 -1.1 -5.6 -1.6 -8.4 -3.4 -19.2 -13.4 -42.7 -37 -87 -4.6 -8.5 -9.5 -17.1 -10.6 -18.4 -0.2 -0.2 -10.4 8.3 -17.8 15 -0.5 0.4 1.4 3.3 4.4 6.6 5.8 6.4 14.6 18.4 16.3 22.3 0.8 2.1 1.1 2.2 1.4 0.8 0.7 -2.7 6.4 -2.4 9 0.5 4.1 4.5 10.1 16.4 11.6 23.2 2.5 10.7 2.9 17.2 1.8 26.9 -0.9 7.4 -1.8 10.6 -5.6 18.1 -5.5 11.2 -16.5 24.1 -29.3 34.5 l-9.2 7.4 5.8 5 c7.4 6.5 15.5 15 19.4 20.3 l3.1 4.2 2.6 -1.8 c1.4 -1.1 5.4 -4.6 8.8 -8z m-101 1.7 c5 -6.2 14.4 -15.6 21.2 -21.1 l3.4 -2.8 -2 -2.2 c-1.1 -1.2 -3.6 -4 -5.6 -6.2 -6 -6.8 -11.7 -15.2 -15.1 -22.6 -2.7 -5.8 -3.4 -6.7 -3.9 -4.9 -0.5 1.8 -1.1 2.1 -4.3 1.8 -3.3 -0.3 -4.2 -0.9 -6.1 -4.3 -1.2 -2.2 -3 -6.5 -3.9 -9.5 -0.9 -3 -2 -6.5 -2.5 -7.8 -1.3 -3.2 -1.1 -22 0.2 -28.4 3.1 -14.9 14.7 -31 33.1 -45.9 l9.7 -7.9 -4.7 -4.3 c-2.5 -2.3 -6.2 -5.7 -8 -7.5 l-3.4 -3.4 -1.7 2.9 c-1 1.5 -3.5 6 -5.6 9.8 -4.3 7.9 -7.9 14.5 -12.4 22.5 -12.1 21.4 -24 49.4 -29.2 68.5 -2.5 9.2 -1.5 25.4 2.1 34 0.5 1.1 1.4 3.8 2.1 6 1.6 5.4 6.2 13.9 11.2 20.5 4.6 6.2 17.5 19 19.2 19 0.6 0 3.4 -2.8 6.2 -6.2z m51.9 -42.5 c11.8 -8.7 12.2 -8.3 -7.7 -8.3 l-17.4 0.1 7.8 7.5 c4.8 4.6 8.2 7.2 9 6.8 0.6 -0.4 4.4 -3.1 8.3 -6.1z m18.4 -16 c0 -0.5 1.6 -2.6 3.5 -4.8 l3.5 -4 -16 -0.3 c-8.8 -0.1 -23.2 -0.1 -32.1 0 l-16 0.3 2.8 3.9 2.8 3.8 23.5 -0.1 c14.2 -0.1 24.1 0.3 25 0.9 1.8 1.2 3 1.3 3 0.3z m205.1 -31.3 c1.8 0 1.9 -0.2 0.4 -3 -0.9 -1.8 -1.5 -5.8 -1.6 -10.7 0 -5.3 -0.3 -7.2 -0.9 -5.8 -0.5 1.1 -0.8 11.7 -0.7 23.5 0.1 13.3 0.3 16.6 0.4 8.8 0.3 -12 0.5 -12.8 2.4 -12.8z m-187.6 2.5 c2.2 -8.8 2.1 -9.3 -2.2 -9.7 -3.3 -0.3 -3.9 -0.7 -4.8 -3.5 l-0.9 -3.3 -39.7 0 c-29.9 0 -39.8 -0.3 -40.1 -1.2 -0.6 -1.8 -3.9 7.1 -4.7 12.7 l-0.7 5.1 2.7 -0.4 c2.3 -0.3 2.8 -1 3.1 -3.6 l0.3 -3.1 42 0 42 0 0.3 3.3 c0.6 6.4 2 6.2 -41.4 5.5 -30.6 -0.5 -39.4 -0.3 -39.4 0.6 0 0.7 0.9 3.3 2.1 5.8 1.8 3.9 2.3 4.4 3.1 3 0.8 -1.5 3 -1.7 17.7 -1.7 9.2 0 25 0.3 34.9 0.7 l18.2 0.6 0 2.6 c0 2.3 0.4 1.9 3 -2.4 1.6 -2.8 3.6 -7.7 4.5 -11z m253.2 -20.7 c-0.1 -4.6 -0.3 -1.1 -0.3 7.7 0 8.8 0.2 12.5 0.3 8.3 0.2 -4.2 0.2 -11.4 0 -16z m-88.8 10.5 c0.1 -2.3 -0.3 -4.5 -0.9 -4.8 -0.6 -0.4 -1 0.7 -1 2.5 0 1.7 -0.7 4.4 -1.5 6 -1.3 2.6 -1.3 2.9 0.3 3.2 2.1 0.5 3 -1.5 3.1 -6.9z m-82.2 -7 c-0.2 -2.1 -0.4 -0.6 -0.4 3.2 0 3.9 0.2 5.5 0.4 3.8 0.2 -1.8 0.2 -5 0 -7z m240.1 -18.8 c0 -6 -0.3 -13.2 -0.8 -16 -0.6 -4 -0.8 -2.6 -0.9 7.3 -0.1 10.1 -0.4 12.2 -1.6 12.2 -1.8 0 -1.8 0.8 0 4 0.8 1.4 1.5 5.4 1.6 9 l0.2 6.5 0.7 -6 c0.4 -3.3 0.8 -10.9 0.8 -17z m-335.8 9.8 c0 -0.5 -1.4 -2.5 -2.9 -4.6 l-2.9 -3.8 -27.5 0.1 c-21.5 0 -27.6 -0.2 -27.9 -1.2 -0.3 -0.8 -1.6 0 -3.4 2.1 -4.2 5 -5.3 6.5 -5.4 7.4 0 0.4 15.8 0.7 35 0.7 19.3 0 35 -0.3 35 -0.7z m383 -2.8 c0 -3.1 -0.3 -3.5 -2.5 -3.5 -2.2 0 -2.5 0.4 -2.5 3.5 0 3.1 0.3 3.5 2.5 3.5 2.2 0 2.5 -0.4 2.5 -3.5z m-284.6 -5.3 c0.3 -0.6 -0.1 -1.2 -0.9 -1.6 -1.2 -0.4 -1.5 0.3 -1.4 3.7 0.1 3.7 0.2 3.9 0.9 1.5 0.4 -1.4 1.1 -3.1 1.4 -3.6z m-114.5 -11.8 c-5.9 -6.2 -15.4 -15.4 -15.9 -15.4 -1 0 -17.6 12.9 -20.4 15.9 l-3 3.1 21.4 0 21.4 0 -3.5 -3.6z m-11.9 -42.1 c6.4 -4.3 20.7 -15.2 21.7 -16.5 1 -1.1 0.7 -2.1 -1.2 -5.1 -1.4 -2 -2.5 -3.9 -2.5 -4.2 0 -0.3 -2.4 -4.3 -5.4 -8.8 -2.9 -4.5 -7.4 -11.5 -9.9 -15.5 l-4.5 -7.3 -1.8 2.5 c-7.3 9.6 -23.4 34.6 -23.4 36.3 0 1.3 10.7 10.6 21.5 18.7 2.5 1.9 2.6 1.9 5.5 -0.1z"/>
 </g>
 <g fill="#2e8c9a">
  <path d="M140.5 297.5 c-11.3 -3.3 -13.5 -4.3 -13.5 -5.8 0 -2.3 12.2 -13.2 27.8 -24.6 3.9 -3 7.2 -5.7 7.2 -6.1 0 -0.8 -9 -8 -10 -8 -2.6 0 -23.8 20.7 -29.8 29.2 -1.6 2.2 -3.5 3.8 -4.8 3.8 -2.9 0 -14.4 -10.2 -21.4 -18.9 -5.9 -7.4 -12.3 -19 -13.6 -24.6 -0.4 -1.6 -1 -3.4 -1.4 -4 -3.3 -4.8 -4.7 -30.6 -2.1 -40 5.3 -19.4 17.1 -47.1 29.2 -68.5 4.6 -8.3 8.2 -14.8 12.4 -22.5 6 -11 8.4 -14.5 10 -14.5 0.8 0 3.4 1.9 5.7 4.3 9.4 9.2 15.1 13.7 17.4 13.7 3.3 0 3 1.2 -0.8 3.5 -4.8 2.7 -21.8 16.6 -25.7 21 -10.7 11.8 -17.9 24.2 -20 34.3 -1.3 6.4 -1.4 19.2 -0.2 22.4 0.5 1.3 1.5 4.3 2.2 6.8 1.3 4.7 4.4 11.6 6.1 13.7 2.2 2.7 2.4 0 0.6 -6.4 -1.6 -5.6 -1.9 -8.8 -1.4 -18.1 0.8 -17.3 6 -28.3 20.1 -42.4 13.2 -13.3 37.5 -31.6 37.5 -28.3 0 0.3 -0.9 1.4 -2.1 2.6 l-2.1 2.1 10.9 11 c13.8 14 12.4 12.4 18.5 21 4.7 6.5 6.5 10 10 18.7 0.6 1.7 1.2 2.1 2 1.3 1.1 -1.1 0.2 -6.4 -2.9 -17.2 -3.1 -10.9 -12.3 -25.1 -23.6 -36.5 l-6.9 -6.9 3.3 -2.6 c6.2 -4.7 19.1 -16.2 19.6 -17.6 0.3 -0.8 1.3 -1.4 2.3 -1.4 2.3 0 9.1 11.6 24.7 42 30.3 59.3 34.6 84.6 19.7 116.6 -5.5 11.9 -18 26.6 -29.6 34.9 l-4.7 3.4 -3.5 -5.2 c-5.8 -8.6 -22.1 -24.6 -29.4 -29 -3.1 -1.9 -6.1 -5.7 -4.5 -5.7 0.5 0 1.8 0.7 3 1.5 2.1 1.5 2.7 1.1 12.3 -6.6 17 -13.7 29 -29 34.1 -43.5 2.7 -7.5 2.8 -20.5 0.4 -30.4 -1.8 -7.6 -8.7 -21.1 -12.5 -24.5 -2.6 -2.4 -2.5 -1.5 0.5 6.2 3.5 8.7 4.6 28.6 2.1 38.3 -3.7 14.3 -18.5 32.6 -37.8 46.7 -4.3 3.2 -7.8 6.1 -7.8 6.6 0 0.5 1 1.7 2.3 2.8 l2.2 1.8 -2.2 0.1 c-2.9 0 -30.3 -27.1 -36.1 -35.7 -4.7 -7 -10.2 -17.1 -10.2 -18.9 0 -1.4 -2.5 -3.6 -3.2 -2.9 -0.7 0.7 1.7 13.1 3.8 19 6 17.8 23.9 39.5 43.4 52.5 2.3 1.5 9.9 7.2 13.4 10 7.3 5.8 18.3 16.1 19.6 18.4 1.8 3.2 1.2 3.8 -7 6.1 -3 0.8 -6.9 1.9 -8.6 2.5 -1.7 0.5 -10.7 1 -20 0.9 -14.8 0 -17.9 -0.3 -24.9 -2.4z m47.5 -77.5 c0 -1.7 -4.2 -2.1 -22.9 -1.8 -13.7 0.2 -18.5 0.6 -18.9 1.6 -0.3 0.9 4.3 1.2 20.7 1.2 13.1 0 21.1 -0.4 21.1 -1z m11.4 -17.5 c0.6 -1.6 -0.4 -1.7 -43.3 -1.9 -14.7 -0.1 -20.5 0.2 -20.8 1.1 -0.2 0.6 0.4 1.3 1.4 1.6 1 0.3 15.4 0.5 31.9 0.6 26 0.1 30.3 -0.1 30.8 -1.4z m4.5 -16.8 c0.6 -0.8 0.8 -1.7 0.4 -2 -1.1 -1.2 -77.1 -0.8 -77.8 0.3 -0.3 0.6 -0.5 1.1 -0.3 1.2 0.2 0.1 13.8 0.5 30.3 0.8 16.5 0.3 33.7 0.7 38.1 0.8 5.8 0.1 8.5 -0.2 9.3 -1.1z m-4.4 -18.7 c1.1 -1.8 -4.1 -2.1 -38.4 -1.8 -26.5 0.2 -34.5 0.6 -34.9 1.6 -0.3 0.9 7.4 1.2 36.2 1.2 22.5 0 36.7 -0.4 37.1 -1z m-12 -18 c0.4 -0.7 -7.8 -1 -23.9 -1 -15.7 0 -24.6 0.4 -24.6 1 0 0.6 8.6 1 23.9 1 14.9 0 24.2 -0.4 24.6 -1z"/>
  <path d="M162.7 107.4 c-0.3 -0.3 -0.3 -1.2 -0.1 -1.9 0.3 -0.7 -1 -2.3 -2.8 -3.6 -8.1 -5.8 -22.3 -18.3 -22.6 -20.1 -0.2 -0.8 1 -3.7 2.7 -6.4 1.6 -2.7 4.3 -7.1 6 -9.9 6.7 -11 19.8 -29 21.2 -29 0.7 0 3.2 2.8 5.4 6.2 9.3 14.3 14.1 22.1 16.6 26.4 1.5 2.5 3.9 6.5 5.3 8.8 l2.8 4.3 -2.4 2.5 c-5 5.5 -31 23.8 -32.1 22.7z"/>
 </g>
</svg>